<?xml version="1.0" encoding="UTF-8" standalone="no"?>
<svg
   xmlns:dc="http://purl.org/dc/elements/1.1/"
   xmlns:cc="http://creativecommons.org/ns#"
   xmlns:rdf="http://www.w3.org/1999/02/22-rdf-syntax-ns#"
   xmlns:svg="http://www.w3.org/2000/svg"
   xmlns="http://www.w3.org/2000/svg"
   xmlns:sodipodi="http://sodipodi.sourceforge.net/DTD/sodipodi-0.dtd"
   xmlns:inkscape="http://www.inkscape.org/namespaces/inkscape"
   width="48"
   height="48"
   version="1.1"
   id="svg11"
   sodipodi:docname="hatchet.svg"
   inkscape:version="0.92.2 (5c3e80d, 2017-08-06)">
  <metadata
     id="metadata15">
    <rdf:RDF>
      <cc:Work
         rdf:about="">
        <dc:format>image/svg+xml</dc:format>
        <dc:type
           rdf:resource="http://purl.org/dc/dcmitype/StillImage" />
        <dc:title></dc:title>
      </cc:Work>
    </rdf:RDF>
  </metadata>
  <sodipodi:namedview
     pagecolor="#ffffff"
     bordercolor="#666666"
     borderopacity="1"
     objecttolerance="10"
     gridtolerance="10"
     guidetolerance="10"
     inkscape:pageopacity="0"
     inkscape:pageshadow="2"
     inkscape:window-width="1920"
     inkscape:window-height="1017"
     id="namedview13"
     showgrid="true"
     inkscape:zoom="7.375"
     inkscape:cx="8.0398312"
     inkscape:cy="33.731637"
     inkscape:window-x="1912"
     inkscape:window-y="-8"
     inkscape:window-maximized="1"
     inkscape:current-layer="svg11"
     showguides="false"
     inkscape:snap-global="false">
    <inkscape:grid
       type="xygrid"
       id="grid891"
       empspacing="4" />
  </sodipodi:namedview>
  <defs
     id="defs5">
    <clipPath
       id="a">
      <path
         d="m -45.534,209.35 29.33,16.933 v 33.867 l -29.33,16.933 -29.33,-16.933 v -33.867 z"
         id="path2"
         inkscape:connector-curvature="0"
         style="fill-opacity:0.506;stroke:#ffffff;stroke-width:2.1170001;stroke-opacity:0.50199998" />
    </clipPath>
  </defs>
  <g
     transform="matrix(0,0.28509914,-0.28509914,0,273.20064,-83.964351)"
     id="g32" />
  <g
     transform="matrix(0,0.28509914,-0.28509914,0,273.20064,-83.964351)"
     id="g34" />
  <g
     transform="matrix(0,0.28509914,-0.28509914,0,273.20064,-83.964351)"
     id="g36" />
  <g
     transform="matrix(0,0.28509914,-0.28509914,0,273.20064,-83.964351)"
     id="g38" />
  <g
     transform="matrix(0,0.28509914,-0.28509914,0,273.20064,-83.964351)"
     id="g40" />
  <g
     transform="matrix(0,0.28509914,-0.28509914,0,273.20064,-83.964351)"
     id="g42" />
  <g
     transform="matrix(0,0.28509914,-0.28509914,0,273.20064,-83.964351)"
     id="g44" />
  <g
     transform="matrix(0,0.28509914,-0.28509914,0,273.20064,-83.964351)"
     id="g46" />
  <g
     transform="matrix(0,0.28509914,-0.28509914,0,273.20064,-83.964351)"
     id="g48" />
  <g
     transform="matrix(0,0.28509914,-0.28509914,0,273.20064,-83.964351)"
     id="g50" />
  <g
     transform="matrix(0,0.28509914,-0.28509914,0,273.20064,-83.964351)"
     id="g52" />
  <g
     transform="matrix(0,0.28509914,-0.28509914,0,273.20064,-83.964351)"
     id="g54" />
  <g
     transform="matrix(0,0.28509914,-0.28509914,0,273.20064,-83.964351)"
     id="g56" />
  <g
     transform="matrix(0,0.28509914,-0.28509914,0,273.20064,-83.964351)"
     id="g58" />
  <g
     transform="matrix(0,0.28509914,-0.28509914,0,273.20064,-83.964351)"
     id="g60" />
  <path
     style="fill:#ffffff;fill-opacity:1;stroke:#323232;stroke-width:1.5;stroke-linecap:butt;stroke-miterlimit:4;stroke-dasharray:none;stroke-opacity:1"
     d="m 36.329162,6.0086487 3.211411,3.2477478 c 0.287489,0.2891444 0.287483,0.7555785 0,1.0447315 l -2.669361,2.669362 c -0.264788,0.263375 -0.683491,0.28861 -0.978111,0.05905 L 32.266827,10.204225 C 32.096765,10.074015 31.991349,9.8774038 31.977633,9.6636901 l 3e-6,-0.0439 c 8.48e-4,-0.198145 0.08106,-0.3881734 0.22257,-0.5269103 l 3.084227,-3.0842255 c 0.330617,-0.3306171 0.731055,-0.3136795 1.044729,-5.6e-6 z m -8.354773,3.4808776 c 0.174752,-0.01059 0.353858,0.041171 0.501168,0.1559531 l 10.727412,8.2654866 c -0.09369,0.53085 -0.226883,1.055025 -0.39972,1.56558 -1.04947,3.343119 -3.670606,5.959806 -7.01482,7.005769 -0.515003,0.166446 -1.039861,0.299446 -1.57164,0.399722 L 21.936148,16.183375 c -0.229562,-0.294615 -0.204428,-0.713426 0.05905,-0.978112 l 5.500734,-5.5007331 c 0.132341,-0.1317403 0.303697,-0.2044196 0.478457,-0.2150036 z m 12.96969,9.8322827 c 1.161279,0.289714 3.552087,0.02119 3.552087,0.02119 0.466621,2.514803 -0.08214,6.35203 -3.449125,9.719022 -3.210972,3.210969 -8.14349,3.760014 -9.897687,3.252293 0,0 0.378564,-1.780007 0.319476,-2.649679 -8.52e-4,-0.264407 -0.02943,-0.529415 -0.08782,-0.787333 0.483586,-0.108805 0.961049,-0.241801 1.430827,-0.399724 3.652381,-1.209521 6.514901,-4.077823 7.717377,-7.732524 0.164593,-0.466439 0.360237,-1.914891 0.414865,-1.423254 z m -18.747123,0.252772 c 0.168855,0.0036 0.342994,0.05914 0.442119,0.187749 l 2.760209,3.679265 c 0.209016,0.336945 0.17577,0.744728 -0.163525,1.085613 L 7.8266122,41.984806 C 7.4788444,42.332573 7.1054729,42.300901 6.7818817,41.97731 L 3.5719846,38.767351 c -0.2874671,-0.289164 -0.287482,-0.757093 0,-1.046245 L 21.783606,19.697236 c 0.08077,-0.07837 0.244492,-0.126249 0.41335,-0.122645 z"
     id="path889"
     inkscape:connector-curvature="0"
     sodipodi:nodetypes="ccccccccccccccccccccccsccccccsccccccccsccc" />
  <g
     transform="matrix(0,0.11954858,-0.11954858,0,90.265567,-42.203015)"
     id="g6">
    <g
       id="g4" />
  </g>
  <g
     transform="matrix(0,0.11954858,-0.11954858,0,90.265567,-42.203015)"
     id="g12">
    <g
       id="g10" />
  </g>
  <g
     transform="matrix(0,0.11954858,-0.11954858,0,90.265567,-42.203015)"
     id="g18">
    <g
       id="g16" />
  </g>
  <g
     transform="matrix(0,0.11954858,-0.11954858,0,90.265567,-42.203015)"
     id="g30">
    <g
       id="g28" />
  </g>
</svg>
