<svg xmlns="http://www.w3.org/2000/svg" width="128" height="128"><path d="M116.317 6.987l-4.756 3.992 4.486 5.593 4.63-3.916zm-5.28 4.433L58.593 55.838l3.914 5.64 52.937-44.389zM87.43 42.583l-23.932 20.37 3.352 5.055 24.414-20.505zM42.553 69.854c.538 5.68 1.203 8.036 3.459 16.177L63.07 71.027l-8.179-12.028zM33.118 83.82c-1.109 1.59-4.574 3.594-4.574 3.594L7.364 109.97l10.882 10.666s4.29-8.47 12.622-23.181c4.064-2.839 5.224.738 8.885-.803-1.395-4.857 1.63-8.452 1.63-8.452s-3.043-9.073-3.296-12.335zm26.344-3.368s-1.568 1.357-3.635 2.963c.663 2.45-2.272 6.105-4.948 4.424l-2.625 2.332c5.361 6.112 15.264-.896 11.208-9.719z" fill="#fff" stroke="#323232" stroke-width="3.225"/></svg>