<svg xmlns="http://www.w3.org/2000/svg" width="128" height="128"><path d="M35.138 86.204L35 86.07a6.878 6.878 0 0 1-1.942 3.655C31.18 91.6 18.637 103.36 15.306 106.48l-.024.024a.974.974 0 0 0 .069 1.442l10.675 8.8a.705.705 0 0 0 1.075-.258l11.183-24.289a8.03 8.03 0 0 1 1.124-1.777l.019-.02zm52.737-44.151L69.342 62.139l-7.01-6.86 20.93-20.89 4.522 4.425c.9.881.94 2.307.091 3.239zM56.418 80.14a3.547 3.547 0 0 1-2.483 1.123c-.278-1.387-.63-3.076-.63-3.076l2.65-2.643 1.176 1.151c.755.74.422 2.312-.713 3.445zM85.22 28.689l1.128-1.126a.617.617 0 0 1 .865-.005l1.46 1.43 1.318-1.315 2.17 2.124 14.088-14.06-.33-.324 3.545-3.7 2.953 2.904-3.544 3.7-.339-.331-14.087 14.061.74.725-3.283 3.277-6.792-6.66a.6.6 0 0 1 .108-.7zM56.704 93.27c.733-1.02-1.288-1.297-1.416-2.524-.22-2.111-1.007-7.198-1.189-8.435a4.645 4.645 0 0 0 3.058-1.426c1.56-1.558 1.878-3.758.706-4.906l-1.177-1.15 1.868-1.862.713.74c.432.417 1.76-.05 1.76-.05l5.262-7.936-7.41-6.993L39.088 78.48l-1.389-1.36a.75.75 0 0 0-1.048.008L35.277 78.5a.728.728 0 0 0 .004 1.039l7.27 7.114c4.554-4.353 5.949-1.707 6.453-.919.505.788 1.029 9.26 1.256 9.341.128.693 4.866-.529 6.444-1.805zm8.036-18.205s4.285 4.121 6.933 5.381c5.583 2.11 12.081 3.169 12.081 3.169s.466-3.29 1.36-8.032c0 0-6.37-.975-9.19-2.402-2.476-1.252-6.695-4.912-6.695-4.912z" stroke-width="2.82" fill="#fff" stroke="#323232"/></svg>