<svg xmlns="http://www.w3.org/2000/svg" width="128" height="128"><path d="M72.467 62.066l-6.921 6.921a38.535 38.535 0 0 0 28.322 5.333l-1.852-9.3c-7.18.409-14.721 1.189-19.549-2.954zM40.392 79.494a.866.866 0 0 0 .26.643l4.298 4.298c.301.314.758.422 1.168.276 1.083-.425 2.066.708 2.47 2.65l1.468 7.013a2.2 2.2 0 0 0 2.604 1.705s3.525-.934 4.97-1.457c1.003-.364-.994-1.284-1.396-3.2l-1.412-7.18a2.362 2.362 0 0 1 .632-2.162l6.266-6.267a2.85 2.85 0 0 0 0-4.03l-2.546-2.547 11.718-11.719-7.432-7.432-7.633 7.633.913.913-16.265 16.265s-.027 3.433-.083 4.598zm10.906-2.728c1.9-1.928 2.911-2.998 4.94-4.9.625.679 2.227 2.322 2.009 2.424-1.348 1.503-2.232 2.375-3.808 3.977-.848.862-3.141-1.501-3.141-1.501zm-20.743 39.386a2.28 2.28 0 0 1-.45.64l-1.184 1.185c-.45.45-1.18.45-1.63 0l-9.836-9.835a1.821 1.821 0 0 1-.06-2.513L31.986 89.58l.084-.084c.29-.289.646-.503 1.038-.624l.826-.256a2.555 2.555 0 0 0 1.365-1.012l2.696-4.001 5.377 5.377zM84.679 29.97l4.818-4.818 3.562.227c1.556-.007 3.491-.657 4.379-1.55l4.289-4.351-2.66-5.17a1.564 1.564 0 0 1 .318-1.752l1.412-1.369s.48.49 1.106 1.116l3.527 3.527 1.515-1.516 2.58.372-2.622 2.62.69.69-17.445 17.443zm3.567 8.86S79.032 49.09 76.05 52.64c-.625.744-1.179 3.795-1.866 3.108l-7.757-7.978c-.614-.632 1.314-2.796 2-3.478L81.159 31.65z" fill="#fff" stroke="#323232" stroke-width="2.763"/></svg>